<svg width="107" height="171" viewBox="0 0 107 171" fill="none" xmlns="http://www.w3.org/2000/svg">
<path d="M30.1593 124V0.159998H37.7913V81.232L67.8153 50.272H77.7513L44.7753 84.616L79.5513 124H69.7593L37.7913 87.568V124H30.1593Z" fill="black"/>
<path d="M0 144H97.6244C100.294 144 102.655 145.731 103.457 148.277V148.277C103.811 149.402 103.833 150.605 103.52 151.741L102.863 154.123C102.418 155.738 100.948 156.857 99.2727 156.857V156.857H52.2719C50.7379 156.857 49.2657 157.462 48.1746 158.54L47.3788 159.327C44.8335 161.843 45.6267 166.133 48.9033 167.572V167.572C49.5458 167.854 50.2399 168 50.9417 168H51.5755H54.1224H61.9755" stroke="black" stroke-width="6"/>
</svg>
