<svg width="55" height="55" viewBox="0 0 55 55" fill="none" xmlns="http://www.w3.org/2000/svg">
<g filter="url(#filter0_i_30_560)">
<path d="M4.58337 27.5C4.58337 16.6971 4.58337 11.2956 7.93837 7.93834C11.298 4.58334 16.6971 4.58334 27.5 4.58334C38.303 4.58334 43.7044 4.58334 47.0594 7.93834C50.4167 11.2979 50.4167 16.6971 50.4167 27.5C50.4167 38.3029 50.4167 43.7044 47.0594 47.0594C43.7067 50.4167 38.303 50.4167 27.5 50.4167C16.6971 50.4167 11.2957 50.4167 7.93837 47.0594C4.58337 43.7067 4.58337 38.3029 4.58337 27.5Z" stroke="#F86464" stroke-width="3"/>
<path d="M13.75 36.2084L16.3694 38.9584L22.9167 32.0834M13.75 20.1667L16.3694 22.9167L22.9167 16.0417" stroke="#F86464" stroke-width="3" stroke-linecap="round" stroke-linejoin="round"/>
<path d="M29.7917 20.625H41.2501M29.7917 36.6667H41.2501" stroke="#F86464" stroke-width="3" stroke-linecap="round"/>
</g>
<defs>
<filter id="filter0_i_30_560" x="0" y="0" width="55" height="59" filterUnits="userSpaceOnUse" color-interpolation-filters="sRGB">
<feFlood flood-opacity="0" result="BackgroundImageFix"/>
<feBlend mode="normal" in="SourceGraphic" in2="BackgroundImageFix" result="shape"/>
<feColorMatrix in="SourceAlpha" type="matrix" values="0 0 0 0 0 0 0 0 0 0 0 0 0 0 0 0 0 0 127 0" result="hardAlpha"/>
<feOffset dy="4"/>
<feGaussianBlur stdDeviation="2"/>
<feComposite in2="hardAlpha" operator="arithmetic" k2="-1" k3="1"/>
<feColorMatrix type="matrix" values="0 0 0 0 0 0 0 0 0 0 0 0 0 0 0 0 0 0 0.25 0"/>
<feBlend mode="normal" in2="shape" result="effect1_innerShadow_30_560"/>
</filter>
</defs>
</svg>
