<svg width="55" height="55" viewBox="0 0 55 55" fill="none" xmlns="http://www.w3.org/2000/svg">
<path d="M4.5835 27.5C4.5835 16.6971 4.5835 11.2957 7.9385 7.93837C11.2981 4.58337 16.6972 4.58337 27.5002 4.58337C38.3031 4.58337 43.7045 4.58337 47.0595 7.93837C50.4168 11.298 50.4168 16.6971 50.4168 27.5C50.4168 38.303 50.4168 43.7044 47.0595 47.0594C43.7068 50.4167 38.3031 50.4167 27.5002 50.4167C16.6972 50.4167 11.2958 50.4167 7.9385 47.0594C4.5835 43.7067 4.5835 38.303 4.5835 27.5Z" stroke="#20C968" stroke-width="3"/>
<path d="M13.75 36.2084L16.3694 38.9584L22.9167 32.0834M13.75 20.1667L16.3694 22.9167L22.9167 16.0417" stroke="#20C968" stroke-width="3" stroke-linecap="round" stroke-linejoin="round"/>
<path d="M29.792 20.625H41.2503M29.792 36.6667H41.2503" stroke="#20C968" stroke-width="3" stroke-linecap="round"/>
</svg>
