<svg width="2018" height="1596" viewBox="0 0 2018 1596" fill="none" xmlns="http://www.w3.org/2000/svg">
<g clip-path="url(#clip0_1145_5873)">
<rect width="2018" height="1596" fill="#F9F9FB"/>
<path fill-rule="evenodd" clip-rule="evenodd" d="M1064.85 1112.3C1258.08 1084.77 1506.92 1014.73 1644.74 1103.58C1789.81 1197.12 1636.9 1354.35 1642.08 1484.45C1645.35 1566.48 1669.66 1641.93 1669.43 1723.98C1669.08 1851.1 1777.97 2001.79 1640.4 2095.58C1506.8 2186.66 1257.41 2164.69 1064.85 2136.16C897.34 2111.34 802.693 2009.02 658.722 1950.12C503.646 1886.68 238.781 1890.33 190.802 1778.59C142.183 1665.36 367.103 1581.32 456.028 1478.05C524.026 1399.08 546.513 1307.47 650.018 1245.29C764.81 1176.33 909.478 1134.43 1064.85 1112.3Z" fill="#E8B595" fill-opacity="0.21"/>
<path fill-rule="evenodd" clip-rule="evenodd" d="M926.844 1325.68C1023.95 1461.45 1191.09 1618.46 1128.37 1771.28C1062.34 1932.15 820.71 1894.61 664.136 1965.77C565.42 2010.63 481.639 2068.44 381.743 2110.61C226.972 2175.94 79.5036 2338.22 -79.895 2279.84C-234.69 2223.15 -290.074 2018.24 -318.762 1854.05C-343.719 1711.23 -250.402 1584.96 -226.151 1442.82C-200.028 1289.72 -291.675 1086.02 -171.53 991.113C-49.7811 894.941 126.51 1026.15 281.424 1041.88C399.882 1053.91 518.735 1024.08 628.463 1072.33C750.154 1125.84 848.761 1216.51 926.844 1325.68Z" fill="#C59EAC" fill-opacity="0.35"/>
<path fill-rule="evenodd" clip-rule="evenodd" d="M1845.91 1273.47C2050.33 1333.55 2333.46 1370.35 2416.91 1540.49C2504.75 1719.58 2265.15 1830.96 2195.43 1986.08C2151.48 2083.88 2131.85 2184.02 2084.48 2280.19C2011.08 2429.17 2030.76 2658.02 1842.58 2702.29C1659.84 2745.29 1429.05 2600.28 1257.51 2474.75C1108.27 2365.55 1074.7 2200.25 968.025 2062.32C853.124 1913.75 592.508 1791.4 609.896 1637.36C627.517 1481.26 895.342 1490.19 1041.48 1411.54C1153.24 1351.4 1227.83 1254.67 1364.59 1231.19C1516.26 1205.16 1681.54 1225.16 1845.91 1273.47Z" fill="#B190BA" fill-opacity="0.37"/>
</g>
<defs>
<clipPath id="clip0_1145_5873">
<rect width="2018" height="1596" fill="white"/>
</clipPath>
</defs>
</svg>
